<?xml version="1.0" standalone="no"?>
<!DOCTYPE svg PUBLIC "-//W3C//DTD SVG 20010904//EN"
 "http://www.w3.org/TR/2001/REC-SVG-20010904/DTD/svg10.dtd">
<svg version="1.0" xmlns="http://www.w3.org/2000/svg"
 width="1280.000000pt" height="853.000000pt" viewBox="0 0 1280.000000 853.000000"
 preserveAspectRatio="xMidYMid meet">
<metadata>
Created by potrace 1.15, written by Peter Selinger 2001-2017
</metadata>
<g transform="translate(0.000000,853.000000) scale(0.100000,-0.100000)"
fill="#000000" stroke="none">
<path d="M4155 7566 c-125 -58 -184 -193 -185 -422 0 -382 102 -721 287 -951
94 -117 301 -335 449 -473 103 -97 296 -309 289 -319 -2 -5 -57 -6 -121 -3
-99 4 -127 2 -188 -16 -75 -23 -234 -51 -327 -59 -45 -4 -70 0 -120 20 -97 38
-197 55 -379 62 -132 6 -184 4 -259 -10 -118 -20 -139 -29 -264 -111 -175
-114 -303 -229 -343 -307 -15 -29 -30 -86 -39 -145 -29 -192 -20 -228 84 -332
48 -47 103 -90 150 -115 57 -31 69 -41 54 -46 -10 -4 -33 -13 -50 -19 -47 -18
-174 -155 -211 -228 -41 -83 -55 -157 -50 -266 6 -146 65 -249 201 -352 69
-52 144 -89 203 -100 67 -12 72 -20 27 -43 -51 -26 -108 -90 -142 -161 -24
-50 -26 -66 -26 -180 0 -120 1 -128 32 -193 59 -124 191 -237 400 -343 57 -29
124 -56 148 -60 25 -3 45 -11 45 -16 0 -5 -16 -28 -35 -51 -57 -66 -75 -114
-75 -195 0 -129 54 -235 159 -314 31 -24 99 -83 151 -133 125 -118 237 -179
311 -169 39 5 60 2 101 -16 41 -18 64 -21 106 -17 50 5 56 4 91 -29 63 -56
124 -79 216 -79 83 0 94 3 207 69 55 32 62 32 248 18 206 -17 456 -15 602 4
158 20 417 85 688 173 118 38 240 74 270 80 114 23 591 80 745 90 256 16 639
-7 985 -58 74 -11 182 -27 240 -36 211 -32 471 -77 720 -125 307 -60 390 -74
585 -100 257 -35 843 -98 1250 -135 443 -40 543 -52 845 -101 327 -53 530 -84
551 -84 19 0 19 37 19 1605 0 883 -3 1605 -7 1605 -3 0 -123 -20 -267 -45
-144 -24 -326 -53 -406 -64 -180 -25 -610 -57 -960 -70 -146 -6 -353 -17 -460
-23 -407 -27 -2647 -12 -2831 18 -244 39 -470 157 -584 305 -22 28 -124 153
-226 278 -387 472 -553 683 -674 861 -153 223 -196 261 -448 392 -192 100
-270 150 -501 324 -87 65 -174 127 -192 137 -20 10 -34 25 -34 35 0 11 -25 37
-61 63 -67 49 -77 58 -117 108 -14 19 -51 50 -82 69 -30 19 -119 98 -198 176
l-143 141 -64 130 c-73 152 -198 345 -223 345 -9 0 -26 7 -36 15 -28 21 -73
18 -131 -9z"/>
</g>
</svg>
