<svg version="1.1" viewBox="0.0 0.0 960.0 720.0" fill="none" stroke="none" stroke-linecap="square" stroke-miterlimit="10" xmlns:xlink="http://www.w3.org/1999/xlink" xmlns="http://www.w3.org/2000/svg"><clipPath id="p.0"><path d="m0 0l960.0 0l0 720.0l-960.0 0l0 -720.0z" clip-rule="nonzero"/></clipPath><g clip-path="url(#p.0)"><path fill="#000000" fill-opacity="0.0" d="m0 0l960.0 0l0 720.0l-960.0 0z" fill-rule="evenodd"/><path fill="#ff9900" d="m0 0l960.0 0l0 720.0l-960.0 0z" fill-rule="evenodd"/><path fill="#000000" fill-opacity="0.0" d="m78.45407 175.25984l291.02362 0l0 369.48035l-291.02362 0z" fill-rule="evenodd"/><path fill="#ffffff" d="m291.26282 432.00003l-15.0 0q-2.59375 0 -4.203125 -1.296875q-1.59375 -1.296875 -2.390625 -3.296875l-13.40625 -34.609375l-64.296875 0l-13.40625 34.609375q-0.6875 1.796875 -2.390625 3.203125q-1.703125 1.390625 -4.203125 1.390625l-15.0 0l57.296875 -143.29688l19.703125 0l57.296875 143.29688zm-93.890625 -53.203125l53.5 0l-22.5 -58.296875q-2.203125 -5.40625 -4.3125 -13.5q-1.09375 4.09375 -2.140625 7.546875q-1.046875 3.453125 -2.046875 6.046875l-22.5 58.203125z" fill-rule="nonzero"/><path fill="#000000" fill-opacity="0.0" d="m322.51968 217.70422l314.9606 0l0 314.96063l-314.9606 0z" fill-rule="evenodd"/><path fill="#ffffff" d="m535.59375 375.5011l-147.39066 0l0 -14.59375l147.39066 0l-11.59375 -27.40625l8.40625 0l39.390625 32.609375l0 4.1875l-39.390625 32.609375l-8.40625 0l11.59375 -27.40625z" fill-rule="nonzero"/><path fill="#000000" fill-opacity="0.0" d="m581.1732 202.51968l314.96063 0l0 314.9606l-314.96063 0z" fill-rule="evenodd"/><path fill="#ffffff" d="m691.35986 432.0l0 -143.29688l45.6875 0q13.203125 0 22.75 2.609375q9.5625 2.59375 15.703125 7.390625q6.15625 4.796875 9.09375 11.75q2.953125 6.953125 2.953125 15.640625q0 5.3125 -1.65625 10.21875q-1.640625 4.890625 -5.0 9.09375q-3.34375 4.1875 -8.390625 7.5q-5.046875 3.296875 -11.84375 5.390625q15.703125 3.109375 23.703125 11.3125q8.0 8.1875 8.0 21.59375q0 9.09375 -3.359375 16.59375q-3.34375 7.5 -9.796875 12.90625q-6.453125 5.390625 -15.8125 8.34375q-9.34375 2.953125 -21.34375 2.953125l-50.6875 0zm19.390625 -65.296875l0 49.890625l31.0 0q8.296875 0 14.25 -1.890625q5.953125 -1.90625 9.796875 -5.34375q3.859375 -3.453125 5.65625 -8.203125q1.796875 -4.75 1.796875 -10.453125q0 -11.109375 -7.859375 -17.546875q-7.84375 -6.453125 -23.734375 -6.453125l-30.90625 0zm0 -13.796875l25.609375 0q8.1875 0 14.1875 -1.796875q6.0 -1.8125 9.953125 -5.0q3.953125 -3.203125 5.84375 -7.75q1.90625 -4.5625 1.90625 -9.953125q0 -12.609375 -7.609375 -18.5q-7.59375 -5.90625 -23.59375 -5.90625l-26.296875 0l0 48.90625z" fill-rule="nonzero"/></g></svg>