<svg version="1.1" viewBox="0.0 0.0 960.0 540.0" fill="none" stroke="none" stroke-linecap="square" stroke-miterlimit="10" xmlns:xlink="http://www.w3.org/1999/xlink" xmlns="http://www.w3.org/2000/svg"><clipPath id="p.0"><path d="m0 0l960.0 0l0 540.0l-960.0 0l0 -540.0z" clip-rule="nonzero"/></clipPath><g clip-path="url(#p.0)"><path fill="#000000" fill-opacity="0.0" d="m0 0l960.0 0l0 540.0l-960.0 0z" fill-rule="evenodd"/><path fill="#000000" d="m-43.0 -16.43832l1025.0078 0l0 570.9921l-1025.0078 0z" fill-rule="evenodd"/><path stroke="#000000" stroke-width="1.0" stroke-linejoin="round" stroke-linecap="butt" d="m-43.0 -16.43832l1025.0078 0l0 570.9921l-1025.0078 0z" fill-rule="evenodd"/><path fill="#3652b5" d="m-10.666667 -6.0l346.67715 0l0 96.0l-346.67715 0z" fill-rule="evenodd"/><path fill="#eef0eb" d="m351.33334 -6.0l92.66141 0l0 101.00787l-92.66141 0z" fill-rule="evenodd"/><path fill="#eef0eb" d="m457.3176 -6.0l310.67715 0l0 237.00787l-310.67715 0z" fill-rule="evenodd"/><path fill="#f8cb04" d="m781.31757 -6.0l189.35437 0l0 237.00787l-189.35437 0z" fill-rule="evenodd"/><path fill="#eef0eb" d="m865.0 245.0l105.63782 0l0 301.00787l-105.63782 0z" fill-rule="evenodd"/><path fill="#eef0eb" d="m457.3176 245.0l257.66928 0l0 237.00787l-257.66928 0z" fill-rule="evenodd"/><path fill="#f8cb04" d="m190.31758 110.0l253.6693 0l0 436.0l-253.6693 0z" fill-rule="evenodd"/><path fill="#eef0eb" d="m-12.367455 110.0l189.35434 0l0 436.0l-189.35434 0z" fill-rule="evenodd"/><path fill="#b82015" d="m457.3176 500.56168l257.66928 0l0 45.417328l-257.66928 0z" fill-rule="evenodd"/><path fill="#1d1c24" d="m730.50134 245.0l120.25195 0l0 301.00787l-120.25195 0z" fill-rule="evenodd"/></g></svg>