<svg version="1.1" viewBox="0.0 0.0 960.0 720.0" fill="none" stroke="none" stroke-linecap="square" stroke-miterlimit="10" xmlns:xlink="http://www.w3.org/1999/xlink" xmlns="http://www.w3.org/2000/svg"><clipPath id="p.0"><path d="m0 0l960.0 0l0 720.0l-960.0 0l0 -720.0z" clip-rule="nonzero"/></clipPath><g clip-path="url(#p.0)"><path fill="#000000" fill-opacity="0.0" d="m0 0l960.0 0l0 720.0l-960.0 0z" fill-rule="evenodd"/><path fill="#40aac2" d="m-0.010498688 0l960.0 0l0 720.0l-960.0 0z" fill-rule="evenodd"/><path fill="#b0d2f1" d="m180.92885 154.4627l0 0c0 -59.1771 133.8986 -107.14961 299.07086 -107.14961l0 0c165.17227 0 299.07083 47.97251 299.07083 107.14961l0 0c0 59.177094 -133.89856 107.1496 -299.07083 107.1496l0 0c-165.17227 0 -299.07086 -47.972504 -299.07086 -107.1496z" fill-rule="evenodd"/><path fill="#ffffff" d="m217.21562 235.25749l0 0c0 -4.8531494 3.9342499 -8.787399 8.787399 -8.787399l0 0l0 0c2.3305664 0 4.565674 0.92581177 6.213623 2.573761c1.6479645 1.6479645 2.5737762 3.883072 2.5737762 6.2136383l0 149.03938c0 4.853119 -3.9342499 8.787384 -8.787399 8.787384l0 0l0 0c-4.8531494 0 -8.787399 -3.9342651 -8.787399 -8.787384z" fill-rule="evenodd"/><path fill="#ffffff" d="m251.42308 172.25406l0 0c0 -4.8531494 3.9342499 -8.787399 8.787399 -8.787399l0 0l0 0c2.3305664 0 4.565674 0.92581177 6.213623 2.573761c1.6479492 1.6479645 2.573761 3.883072 2.573761 6.2136383l0 281.7953c0 4.8531494 -3.9342346 8.787384 -8.787384 8.787384l0 0l0 0c-4.8531494 0 -8.787399 -3.9342346 -8.787399 -8.787384z" fill-rule="evenodd"/><path fill="#ffffff" d="m285.62894 239.09045l0 0c0 -4.8531494 3.9342346 -8.787399 8.787384 -8.787399l0 0l0 0c2.3305664 0 4.565674 0.92581177 6.213623 2.573761c1.6479797 1.6479645 2.5737915 3.883072 2.5737915 6.2136383l0 149.03937c0 4.8531494 -3.9342651 8.787415 -8.787415 8.787415l0 0l0 0c-4.8531494 0 -8.787384 -3.9342651 -8.787384 -8.787415z" fill-rule="evenodd"/><path fill="#ffffff" d="m390.06052 278.49756l0 0c0 -4.8531494 3.9342651 -8.787384 8.787415 -8.787384l0 0l0 0c2.3305664 0 4.565674 0.92581177 6.213623 2.573761c1.6479492 1.6479492 2.573761 3.8830566 2.573761 6.213623l0 62.551178c0 4.8531494 -3.9342346 8.787415 -8.787384 8.787415l0 0l0 0c-4.8531494 0 -8.787415 -3.9342651 -8.787415 -8.787415z" fill-rule="evenodd"/><path fill="#ffffff" d="m422.01263 304.91656l0 0c0 -4.8531494 3.9342346 -8.787415 8.787384 -8.787415l0 0l0 0c2.3305664 0 4.565674 0.92581177 6.2136536 2.573761c1.6479492 1.6479797 2.573761 3.8830872 2.573761 6.2136536l0 9.700775l0 0c0 4.8531494 -3.9342651 8.787415 -8.787415 8.787415l0 0l0 0c-4.8531494 0 -8.787384 -3.9342651 -8.787384 -8.787415z" fill-rule="evenodd"/><path fill="#ffffff" d="m452.91113 250.80933l0 0c0 -4.8531494 3.9342346 -8.787399 8.787384 -8.787399l0 0l0 0c2.3305664 0 4.565674 0.92581177 6.2136536 2.5737762c1.6479492 1.6479492 2.573761 3.8830566 2.573761 6.213623l0 117.921265c0 4.8531494 -3.9342651 8.787415 -8.787415 8.787415l0 0l0 0c-4.8531494 0 -8.787384 -3.9342651 -8.787384 -8.787415z" fill-rule="evenodd"/><path fill="#ffffff" d="m490.80457 125.428085l0 0c0 -4.8531494 3.9342346 -8.787399 8.787384 -8.787399l0 0l0 0c2.3305664 0 4.565674 0.92581177 6.213623 2.5737686c1.6479797 1.6479568 2.5737915 3.8830643 2.5737915 6.2136307l0 376.37793c0 4.8531494 -3.9342651 8.787415 -8.787415 8.787415l0 0l0 0c-4.8531494 0 -8.787384 -3.9342651 -8.787384 -8.787415z" fill-rule="evenodd"/><path fill="#ffffff" d="m525.5372 211.41321l0 0c0 -4.8531494 3.9342651 -8.787399 8.787415 -8.787399l0 0l0 0c2.3305664 0 4.565674 0.92581177 6.213623 2.5737762c1.6480103 1.6479492 2.5737915 3.883072 2.5737915 6.213623l0 196.72443c0 4.8531494 -3.9342651 8.787384 -8.787415 8.787384l0 0l0 0c-4.8531494 0 -8.787415 -3.9342346 -8.787415 -8.787384z" fill-rule="evenodd"/><path fill="#ffffff" d="m558.68945 93.52532l0 0c0 -4.637184 3.7591553 -8.396362 8.396362 -8.396362l0.7821045 0l0 0c2.2268066 0 4.362488 0.88461304 5.9370728 2.4592361c1.574646 1.5746231 2.4592896 3.7102737 2.4592896 5.937126l0 440.21515c0 4.637146 -3.7592163 8.396362 -8.396362 8.396362l-0.7821045 0c-4.637207 0 -8.396362 -3.7592163 -8.396362 -8.396362z" fill-rule="evenodd"/><path fill="#ffffff" d="m593.9489 235.24734l0 0c0 -4.8531494 3.934204 -8.787399 8.7873535 -8.787399l0 0l0 0c2.3305664 0 4.565674 0.92581177 6.213684 2.5737762c1.6479492 1.6479492 2.5737305 3.8830566 2.5737305 6.213623l0 149.03937c0 4.8531494 -3.9342651 8.787415 -8.787415 8.787415l0 0l0 0c-4.8531494 0 -8.7873535 -3.9342651 -8.7873535 -8.787415z" fill-rule="evenodd"/><path fill="#ffffff" d="m629.2083 133.31248l0 0c0 -4.8531494 3.9342651 -8.787407 8.787415 -8.787407l0 0l0 0c2.3305664 0 4.565674 0.92581177 6.213623 2.5737686c1.6479492 1.6479645 2.5737915 3.883072 2.5737915 6.2136383l0 360.62994c0 4.8531494 -3.9342651 8.787384 -8.787415 8.787384l0 0l0 0c-4.8531494 0 -8.787415 -3.9342346 -8.787415 -8.787384z" fill-rule="evenodd"/><path fill="#ffffff" d="m663.1654 168.8655l0 0c0 -4.8531494 3.9342651 -8.787399 8.787415 -8.787399l0 0l0 0c2.3305664 0 4.565674 0.92581177 6.213623 2.573761c1.6479492 1.6479645 2.5737915 3.883072 2.5737915 6.2136383l0 281.7953c0 4.8531494 -3.9342651 8.787415 -8.787415 8.787415l0 0l0 0c-4.8531494 0 -8.787415 -3.9342651 -8.787415 -8.787415z" fill-rule="evenodd"/><path fill="#ffffff" d="m696.0689 215.25632l0 0c0 -4.8531494 3.9342651 -8.787399 8.787415 -8.787399l0 0l0 0c2.3305664 0 4.565674 0.92581177 6.213623 2.573761c1.6479492 1.6479645 2.5737305 3.883072 2.5737305 6.2136383l0 196.7244c0 4.8531494 -3.934204 8.787415 -8.7873535 8.787415l0 0l0 0c-4.8531494 0 -8.787415 -3.9342651 -8.787415 -8.787415z" fill-rule="evenodd"/><path fill="#ffffff" d="m728.62476 282.34067l0 0c0 -4.8531494 3.934204 -8.787384 8.7873535 -8.787384l0 0l0 0c2.3305664 0 4.565674 0.92581177 6.213623 2.573761c1.6480103 1.6479492 2.5737915 3.8830566 2.5737915 6.213623l0 62.551178c0 4.8531494 -3.9342651 8.787415 -8.787415 8.787415l0 0l0 0c-4.8531494 0 -8.7873535 -3.9342651 -8.7873535 -8.787415z" fill-rule="evenodd"/><path fill="#ffffff" d="m321.41516 172.2519l0 0c0 -4.8531494 3.9342651 -8.787399 8.787415 -8.787399l0 0l0 0c2.330536 0 4.565674 0.92581177 6.213623 2.573761c1.6479492 1.6479645 2.573761 3.883072 2.573761 6.2136383l0 281.7953c0 4.8531494 -3.9342346 8.787415 -8.787384 8.787415l0 0l0 0c-4.8531494 0 -8.787415 -3.9342651 -8.787415 -8.787415z" fill-rule="evenodd"/><path fill="#ffffff" d="m357.58163 239.09045l0 0c0 -4.8531494 3.9342651 -8.787399 8.787415 -8.787399l0 0l0 0c2.330536 0 4.565674 0.92581177 6.213623 2.573761c1.6479492 1.6479645 2.573761 3.883072 2.573761 6.2136383l0 149.03937c0 4.8531494 -3.9342651 8.787415 -8.787384 8.787415l0 0l0 0c-4.8531494 0 -8.787415 -3.9342651 -8.787415 -8.787415z" fill-rule="evenodd"/><path fill="#000000" fill-opacity="0.0" d="m101.37008 556.6869l757.2599 0l0 116.0l-757.2599 0z" fill-rule="evenodd"/><path fill="#ffffff" d="m227.28127 658.61255q-7.203125 0 -13.78125 -2.15625q-6.578125 -2.15625 -10.515625 -5.8125q-1.4375 -1.34375 -1.4375 -3.359375q0 -1.34375 0.765625 -2.34375q0.78125 -1.015625 1.828125 -1.015625q1.25 0 2.6875 1.0625q8.9375 6.90625 20.359375 6.90625q8.25 0 12.65625 -3.15625q4.421875 -3.171875 4.421875 -9.03125q0 -3.359375 -2.109375 -5.421875q-2.109375 -2.0625 -5.5625 -3.3125q-3.453125 -1.25 -9.3125 -2.59375q-7.875 -1.828125 -12.921875 -3.84375q-5.03125 -2.015625 -8.15625 -5.75q-3.109375 -3.75 -3.109375 -9.796875q0 -5.765625 3.109375 -10.21875q3.125 -4.46875 8.734375 -6.921875q5.625 -2.453125 12.828125 -2.453125q6.71875 0 12.515625 2.078125q5.8125 2.0625 9.75 5.890625q1.53125 1.546875 1.53125 3.359375q0 1.34375 -0.765625 2.359375q-0.765625 1.0 -1.828125 1.0q-1.046875 0 -2.78125 -1.046875q-4.703125 -3.84375 -8.734375 -5.375q-4.03125 -1.546875 -9.6875 -1.546875q-7.96875 0 -12.390625 3.3125q-4.421875 3.3125 -4.421875 9.265625q0 5.09375 3.890625 7.640625q3.890625 2.546875 11.953125 4.453125q8.734375 2.125 13.71875 3.90625q5.0 1.765625 8.3125 5.328125q3.3125 3.546875 3.3125 9.484375q0 5.671875 -3.125 10.0q-3.109375 4.3125 -8.78125 6.71875q-5.65625 2.390625 -12.953125 2.390625zm60.091354 -48.671875q8.265625 0 12.484375 4.65625q4.21875 4.65625 4.21875 13.875l0 26.015625q0 1.828125 -1.0625 2.84375q-1.046875 1.0 -2.765625 1.0q-1.828125 0 -2.890625 -1.0q-1.046875 -1.015625 -1.046875 -2.84375l0 -25.828125q0 -6.234375 -2.546875 -9.203125q-2.546875 -2.984375 -8.109375 -2.984375q-6.4375 0 -10.28125 3.9375q-3.84375 3.9375 -3.84375 10.65625l0 23.421875q0 1.828125 -1.015625 2.84375q-1.0 1.0 -2.8125 1.0q-1.828125 0 -2.890625 -1.0q-1.046875 -1.015625 -1.046875 -2.84375l0 -61.0625q0 -1.625 1.09375 -2.671875q1.109375 -1.0625 2.84375 -1.0625q1.8125 0 2.8125 1.015625q1.015625 1.0 1.015625 2.71875l0 25.15625q2.3125 -4.21875 6.4375 -6.421875q4.125 -2.21875 9.40625 -2.21875zm50.309235 48.578125q-6.625 0 -11.671875 -2.96875q-5.03125 -2.984375 -7.765625 -8.5q-2.734375 -5.515625 -2.734375 -12.8125q0 -7.296875 2.734375 -12.8125q2.734375 -5.53125 7.765625 -8.5q5.046875 -2.984375 11.671875 -2.984375q6.625 0 11.703125 2.984375q5.09375 2.96875 7.828125 8.5q2.734375 5.515625 2.734375 12.8125q0 7.296875 -2.734375 12.8125q-2.734375 5.515625 -7.828125 8.5q-5.078125 2.96875 -11.703125 2.96875zm0 -6.4375q6.90625 0 10.59375 -4.546875q3.703125 -4.5625 3.703125 -13.296875q0 -8.546875 -3.75 -13.203125q-3.734375 -4.65625 -10.546875 -4.65625q-6.8125 0 -10.5625 4.65625q-3.75 4.65625 -3.75 13.203125q0 8.640625 3.703125 13.25q3.703125 4.59375 10.609375 4.59375zm97.250854 -39.453125q0.953125 -2.296875 3.15625 -2.296875q1.453125 0 2.59375 0.96875q1.15625 0.953125 1.15625 2.390625q0 0.671875 -0.28125 1.4375l-15.9375 40.3125q-0.578125 1.25 -1.6875 1.96875q-1.09375 0.71875 -2.4375 0.71875q-1.25 0 -2.359375 -0.71875q-1.109375 -0.71875 -1.6875 -1.96875l-13.234375 -33.6875l-13.15625 33.6875q-0.484375 1.25 -1.640625 1.96875q-1.140625 0.71875 -2.484375 0.71875q-1.25 0 -2.40625 -0.71875q-1.15625 -0.71875 -1.71875 -1.96875l-15.9375 -40.21875q-0.296875 -0.765625 -0.296875 -1.34375q0 -1.53125 1.296875 -2.578125q1.296875 -1.0625 2.828125 -1.0625q2.3125 0 3.265625 2.296875l13.15625 35.421875l13.53125 -35.140625q0.578125 -1.234375 1.578125 -1.90625q1.015625 -0.671875 2.171875 -0.671875q1.25 0 2.25 0.671875q1.015625 0.671875 1.5 1.90625l13.53125 35.046875l13.25 -35.234375zm52.50595 34.375q1.0625 0 1.828125 0.859375q0.765625 0.859375 0.765625 2.203125q0 2.40625 -3.359375 4.421875q-3.453125 2.015625 -7.296875 3.03125q-3.84375 1.0 -7.484375 1.0q-10.859375 0 -17.140625 -6.421875q-6.28125 -6.4375 -6.28125 -17.765625q0 -7.203125 2.78125 -12.71875q2.78125 -5.53125 7.8125 -8.59375q5.046875 -3.078125 11.484375 -3.078125q9.109375 0 14.484375 5.953125q5.390625 5.953125 5.390625 16.125q0 1.921875 -0.78125 2.796875q-0.765625 0.859375 -2.484375 0.859375l-30.921875 0q0.875 16.515625 15.65625 16.515625q3.734375 0 6.421875 -1.015625q2.6875 -1.015625 5.765625 -2.734375q2.5 -1.4375 3.359375 -1.4375zm-16.796875 -31.015625q-6.140625 0 -9.84375 3.84375q-3.6875 3.84375 -4.359375 10.84375l27.15625 0q-0.1875 -7.09375 -3.546875 -10.890625q-3.359375 -3.796875 -9.40625 -3.796875zm54.34198 -5.859375q4.03125 -0.28125 4.03125 3.265625q0 1.546875 -0.875 2.453125q-0.859375 0.90625 -2.96875 1.109375l-2.890625 0.28125q-6.421875 0.578125 -9.546875 4.5625q-3.125 3.984375 -3.125 9.359375l0 23.328125q0 1.921875 -1.0625 2.890625q-1.046875 0.953125 -2.765625 0.953125q-1.734375 0 -2.84375 -1.0q-1.09375 -1.015625 -1.09375 -2.84375l0 -40.515625q0 -1.828125 1.140625 -2.828125q1.15625 -1.015625 2.796875 -1.015625q1.53125 0 2.578125 1.015625q1.0625 1.0 1.0625 2.734375l0 5.375q2.015625 -4.21875 5.703125 -6.421875q3.703125 -2.21875 8.5 -2.59375l1.359375 -0.109375zm57.01532 48.203125q-1.828125 0 -2.9375 -1.109375q-1.09375 -1.109375 -1.09375 -2.921875l0 -57.40625l-20.640625 0q-1.734375 0 -2.6875 -0.859375q-0.953125 -0.875 -0.953125 -2.5q0 -1.640625 0.953125 -2.5q0.953125 -0.875 2.6875 -0.875l49.25 0q1.734375 0 2.6875 0.875q0.953125 0.859375 0.953125 2.5q0 1.625 -0.953125 2.5q-0.953125 0.859375 -2.6875 0.859375l-20.640625 0l0 57.40625q0 1.8125 -1.0625 2.921875q-1.046875 1.109375 -2.875 1.109375zm64.41559 -48.203125q1.828125 0 2.828125 1.0625q1.015625 1.0625 1.015625 2.78125l0 40.609375q0 1.640625 -1.015625 2.703125q-1.0 1.046875 -2.828125 1.046875q-1.734375 0 -2.75 -1.0q-1.0 -1.015625 -1.0 -2.65625l0 -4.796875q-2.203125 4.21875 -6.1875 6.4375q-3.984375 2.203125 -8.96875 2.203125q-8.359375 0 -12.578125 -4.65625q-4.21875 -4.65625 -4.21875 -13.78125l0 -26.109375q0 -1.71875 1.046875 -2.78125q1.0625 -1.0625 2.875 -1.0625q1.828125 0 2.828125 1.0625q1.015625 1.0625 1.015625 2.78125l0 25.921875q0 6.234375 2.5 9.171875q2.5 2.921875 7.875 2.921875q6.140625 0 9.875 -3.984375q3.75 -3.984375 3.75 -10.515625l0 -23.515625q0 -1.71875 1.046875 -2.78125q1.0625 -1.0625 2.890625 -1.0625zm41.855957 -0.1875q16.796875 0 16.796875 18.53125l0 26.015625q0 1.828125 -1.015625 2.84375q-1.0 1.0 -2.8125 1.0q-1.828125 0 -2.890625 -1.0q-1.046875 -1.015625 -1.046875 -2.84375l0 -25.53125q0 -6.53125 -2.546875 -9.5q-2.546875 -2.984375 -8.109375 -2.984375q-6.4375 0 -10.28125 3.9375q-3.84375 3.9375 -3.84375 10.65625l0 23.421875q0 1.828125 -1.015625 2.84375q-1.0 1.0 -2.8125 1.0q-1.828125 0 -2.890625 -1.0q-1.046875 -1.015625 -1.046875 -2.84375l0 -40.515625q0 -1.71875 1.046875 -2.78125q1.0625 -1.0625 2.890625 -1.0625q1.71875 0 2.71875 1.0625q1.015625 1.0625 1.015625 2.6875l0 4.890625q2.3125 -4.3125 6.4375 -6.5625q4.125 -2.265625 9.40625 -2.265625zm67.19983 37.0625q1.0625 0 1.828125 0.859375q0.765625 0.859375 0.765625 2.203125q0 2.40625 -3.359375 4.421875q-3.453125 2.015625 -7.296875 3.03125q-3.84375 1.0 -7.484375 1.0q-10.859375 0 -17.140625 -6.421875q-6.28125 -6.4375 -6.28125 -17.765625q0 -7.203125 2.78125 -12.71875q2.78125 -5.53125 7.8125 -8.59375q5.046875 -3.078125 11.484375 -3.078125q9.109375 0 14.484375 5.953125q5.390625 5.953125 5.390625 16.125q0 1.921875 -0.78125 2.796875q-0.765625 0.859375 -2.484375 0.859375l-30.921875 0q0.875 16.515625 15.65625 16.515625q3.734375 0 6.421875 -1.015625q2.6875 -1.015625 5.765625 -2.734375q2.5 -1.4375 3.359375 -1.4375zm-16.796875 -31.015625q-6.140625 0 -9.84375 3.84375q-3.6875 3.84375 -4.359375 10.84375l27.15625 0q-0.1875 -7.09375 -3.546875 -10.890625q-3.359375 -3.796875 -9.40625 -3.796875z" fill-rule="nonzero"/></g></svg>