<svg version="1.1" viewBox="0.0 0.0 960.0 540.0" fill="none" stroke="none" stroke-linecap="square" stroke-miterlimit="10" xmlns:xlink="http://www.w3.org/1999/xlink" xmlns="http://www.w3.org/2000/svg"><clipPath id="p.0"><path d="m0 0l960.0 0l0 540.0l-960.0 0l0 -540.0z" clip-rule="nonzero"/></clipPath><g clip-path="url(#p.0)"><path fill="#000000" fill-opacity="0.0" d="m0 0l960.0 0l0 540.0l-960.0 0z" fill-rule="evenodd"/><path fill="#009901" d="m-0.59579813 0l976.189 0l0 540.0l-976.189 0z" fill-rule="evenodd"/><g filter="url(#shadowFilter-p.1)"><use xlink:href="#p.1" transform="matrix(1.0 0.0 0.0 1.0 8.387893957103019 12.435563535515092)"/></g><defs><filter id="shadowFilter-p.1" filterUnits="userSpaceOnUse"><feGaussianBlur in="SourceAlpha" stdDeviation="0.0" result="blur"/><feComponentTransfer in="blur" color-interpolation-filters="sRGB"><feFuncR type="linear" slope="0" intercept="0.0"/><feFuncG type="linear" slope="0" intercept="0.0"/><feFuncB type="linear" slope="0" intercept="0.0"/><feFuncA type="linear" slope="1.0" intercept="0"/></feComponentTransfer></filter></defs><g id="p.1"><path fill="#000000" fill-opacity="0.0" d="m-332.55396 89.208664l623.8425 0l0 361.57483l-623.8425 0z" fill-rule="evenodd"/><path fill="#ffffff" d="m-18.236292 88.66789q40.53125 0 71.46875 13.34375q30.9375 13.328125 48.0 38.125q17.0625 24.796875 17.0625 57.328125q0 20.796875 -9.0625 37.0625q-9.0625 16.265625 -21.328125 27.468735q-12.265625 11.203125 -30.9375 24.53125q-15.46875 11.734375 -22.671875 18.671875q-7.187502 6.9375 -7.187502 14.390625l0 11.203125l-91.203125 0l0 -26.65625q0 -12.8125 8.0 -23.203125q8.0 -10.40625 25.062498 -26.406235q17.59375 -15.46875 26.921875 -27.734375q9.34375 -12.265625 9.34375 -27.1875q0 -15.46875 -9.609375 -26.40625q-9.59375 -10.9375 -25.59375 -10.9375q-34.65625 0 -34.65625 44.796875q0 9.609375 0.53125 14.40625l-98.14063 0q-0.53125 -3.734375 -1.0625 -8.53125q-0.53125 -4.796875 -0.53125 -11.734375q0 -34.140625 18.65625 -59.46875q18.671883 -25.328125 52.000008 -39.1875q33.34375 -13.875 74.9375 -13.875zm-52.265625 373.32812l0 -98.671875l105.609375 0l0 98.671875l-105.609375 0z" fill-rule="nonzero"/></g><g filter="url(#shadowFilter-p.2)"><use xlink:href="#p.2" transform="matrix(1.0 0.0 0.0 1.0 8.387893957103019 12.435563535515092)"/></g><defs><filter id="shadowFilter-p.2" filterUnits="userSpaceOnUse"><feGaussianBlur in="SourceAlpha" stdDeviation="0.0" result="blur"/><feComponentTransfer in="blur" color-interpolation-filters="sRGB"><feFuncR type="linear" slope="0" intercept="0.0"/><feFuncG type="linear" slope="0" intercept="0.0"/><feFuncB type="linear" slope="0" intercept="0.0"/><feFuncA type="linear" slope="1.0" intercept="0"/></feComponentTransfer></filter></defs><g id="p.2"><path fill="#000000" fill-opacity="0.0" d="m-132.55396 89.208664l623.8425 0l0 361.57483l-623.8425 0z" fill-rule="evenodd"/><path fill="#ffffff" d="m181.7637 88.66789q40.53125 0 71.46875 13.34375q30.9375 13.328125 48.0 38.125q17.0625 24.796875 17.0625 57.328125q0 20.796875 -9.0625 37.0625q-9.0625 16.265625 -21.328125 27.468735q-12.265625 11.203125 -30.9375 24.53125q-15.46875 11.734375 -22.671875 18.671875q-7.1875 6.9375 -7.1875 14.390625l0 11.203125l-91.203125 0l0 -26.65625q0 -12.8125 8.0 -23.203125q8.0 -10.40625 25.0625 -26.406235q17.59375 -15.46875 26.921875 -27.734375q9.34375 -12.265625 9.34375 -27.1875q0 -15.46875 -9.609375 -26.40625q-9.59375 -10.9375 -25.59375 -10.9375q-34.65625 0 -34.65625 44.796875q0 9.609375 0.53125 14.40625l-98.14062 0q-0.53125 -3.734375 -1.0625 -8.53125q-0.53125 -4.796875 -0.53125 -11.734375q0 -34.140625 18.65625 -59.46875q18.671875 -25.328125 52.0 -39.1875q33.343742 -13.875 74.93749 -13.875zm-52.265625 373.32812l0 -98.671875l105.609375 0l0 98.671875l-105.609375 0z" fill-rule="nonzero"/></g><g filter="url(#shadowFilter-p.3)"><use xlink:href="#p.3" transform="matrix(1.0 0.0 0.0 1.0 8.387893957103019 12.435563535515092)"/></g><defs><filter id="shadowFilter-p.3" filterUnits="userSpaceOnUse"><feGaussianBlur in="SourceAlpha" stdDeviation="0.0" result="blur"/><feComponentTransfer in="blur" color-interpolation-filters="sRGB"><feFuncR type="linear" slope="0" intercept="0.0"/><feFuncG type="linear" slope="0" intercept="0.0"/><feFuncB type="linear" slope="0" intercept="0.0"/><feFuncA type="linear" slope="1.0" intercept="0"/></feComponentTransfer></filter></defs><g id="p.3"><path fill="#000000" fill-opacity="0.0" d="m67.85378 89.208664l623.8425 0l0 361.57483l-623.8425 0z" fill-rule="evenodd"/><path fill="#ffffff" d="m382.17145 88.66789q40.53125 0 71.46875 13.34375q30.9375 13.328125 48.0 38.125q17.0625 24.796875 17.0625 57.328125q0 20.796875 -9.0625 37.0625q-9.0625 16.265625 -21.328125 27.468735q-12.265625 11.203125 -30.9375 24.53125q-15.46875 11.734375 -22.671875 18.671875q-7.1875 6.9375 -7.1875 14.390625l0 11.203125l-91.203125 0l0 -26.65625q0 -12.8125 8.0 -23.203125q8.0 -10.40625 25.0625 -26.406235q17.59375 -15.46875 26.921875 -27.734375q9.34375 -12.265625 9.34375 -27.1875q0 -15.46875 -9.609375 -26.40625q-9.59375 -10.9375 -25.59375 -10.9375q-34.65625 0 -34.65625 44.796875q0 9.609375 0.53125 14.40625l-98.140625 0q-0.53125 -3.734375 -1.0625 -8.53125q-0.53125 -4.796875 -0.53125 -11.734375q0 -34.140625 18.65625 -59.46875q18.671875 -25.328125 52.0 -39.1875q33.34375 -13.875 74.9375 -13.875zm-52.265625 373.32812l0 -98.671875l105.609375 0l0 98.671875l-105.609375 0z" fill-rule="nonzero"/></g><g filter="url(#shadowFilter-p.4)"><use xlink:href="#p.4" transform="matrix(1.0 0.0 0.0 1.0 8.387893957103019 12.435563535515092)"/></g><defs><filter id="shadowFilter-p.4" filterUnits="userSpaceOnUse"><feGaussianBlur in="SourceAlpha" stdDeviation="0.0" result="blur"/><feComponentTransfer in="blur" color-interpolation-filters="sRGB"><feFuncR type="linear" slope="0" intercept="0.0"/><feFuncG type="linear" slope="0" intercept="0.0"/><feFuncB type="linear" slope="0" intercept="0.0"/><feFuncA type="linear" slope="1.0" intercept="0"/></feComponentTransfer></filter></defs><g id="p.4"><path fill="#000000" fill-opacity="0.0" d="m267.8538 89.208664l623.8425 0l0 361.57483l-623.8425 0z" fill-rule="evenodd"/><path fill="#ffffff" d="m582.17145 88.66789q40.53125 0 71.46875 13.34375q30.9375 13.328125 48.0 38.125q17.0625 24.796875 17.0625 57.328125q0 20.796875 -9.0625 37.0625q-9.0625 16.265625 -21.328125 27.468735q-12.265625 11.203125 -30.9375 24.53125q-15.46875 11.734375 -22.671875 18.671875q-7.1875 6.9375 -7.1875 14.390625l0 11.203125l-91.203125 0l0 -26.65625q0 -12.8125 8.0 -23.203125q8.0 -10.40625 25.0625 -26.406235q17.59375 -15.46875 26.921875 -27.734375q9.34375 -12.265625 9.34375 -27.1875q0 -15.46875 -9.609375 -26.40625q-9.59375 -10.9375 -25.59375 -10.9375q-34.65625 0 -34.65625 44.796875q0 9.609375 0.53125 14.40625l-98.140625 0q-0.53125 -3.734375 -1.0625 -8.53125q-0.53125 -4.796875 -0.53125 -11.734375q0 -34.140625 18.65625 -59.46875q18.671875 -25.328125 52.0 -39.1875q33.34375 -13.875 74.9375 -13.875zm-52.265625 373.32812l0 -98.671875l105.609375 0l0 98.671875l-105.609375 0z" fill-rule="nonzero"/></g><g filter="url(#shadowFilter-p.5)"><use xlink:href="#p.5" transform="matrix(1.0 0.0 0.0 1.0 8.387893957103019 12.435563535515092)"/></g><defs><filter id="shadowFilter-p.5" filterUnits="userSpaceOnUse"><feGaussianBlur in="SourceAlpha" stdDeviation="0.0" result="blur"/><feComponentTransfer in="blur" color-interpolation-filters="sRGB"><feFuncR type="linear" slope="0" intercept="0.0"/><feFuncG type="linear" slope="0" intercept="0.0"/><feFuncB type="linear" slope="0" intercept="0.0"/><feFuncA type="linear" slope="1.0" intercept="0"/></feComponentTransfer></filter></defs><g id="p.5"><path fill="#000000" fill-opacity="0.0" d="m468.71143 89.208664l623.8425 0l0 361.57483l-623.8425 0z" fill-rule="evenodd"/><path fill="#ffffff" d="m783.0291 88.66789q40.53125 0 71.46875 13.34375q30.9375 13.328125 48.0 38.125q17.0625 24.796875 17.0625 57.328125q0 20.796875 -9.0625 37.0625q-9.0625 16.265625 -21.328125 27.468735q-12.265625 11.203125 -30.9375 24.53125q-15.46875 11.734375 -22.671875 18.671875q-7.1875 6.9375 -7.1875 14.390625l0 11.203125l-91.203125 0l0 -26.65625q0 -12.8125 8.0 -23.203125q8.0 -10.40625 25.0625 -26.406235q17.59375 -15.46875 26.921875 -27.734375q9.34375 -12.265625 9.34375 -27.1875q0 -15.46875 -9.609375 -26.40625q-9.59375 -10.9375 -25.59375 -10.9375q-34.65625 0 -34.65625 44.796875q0 9.609375 0.53125 14.40625l-98.140625 0q-0.53125 -3.734375 -1.0625 -8.53125q-0.53125 -4.796875 -0.53125 -11.734375q0 -34.140625 18.65625 -59.46875q18.671875 -25.328125 52.0 -39.1875q33.34375 -13.875 74.9375 -13.875zm-52.265625 373.32812l0 -98.671875l105.609375 0l0 98.671875l-105.609375 0z" fill-rule="nonzero"/></g><g filter="url(#shadowFilter-p.6)"><use xlink:href="#p.6" transform="matrix(1.0 0.0 0.0 1.0 8.387893957103019 12.435563535515092)"/></g><defs><filter id="shadowFilter-p.6" filterUnits="userSpaceOnUse"><feGaussianBlur in="SourceAlpha" stdDeviation="0.0" result="blur"/><feComponentTransfer in="blur" color-interpolation-filters="sRGB"><feFuncR type="linear" slope="0" intercept="0.0"/><feFuncG type="linear" slope="0" intercept="0.0"/><feFuncB type="linear" slope="0" intercept="0.0"/><feFuncA type="linear" slope="1.0" intercept="0"/></feComponentTransfer></filter></defs><g id="p.6"><path fill="#000000" fill-opacity="0.0" d="m668.7114 89.208664l623.8425 0l0 361.57483l-623.8425 0z" fill-rule="evenodd"/><path fill="#ffffff" d="m983.0291 88.66789q40.53125 0 71.46869 13.34375q30.9375 13.328125 48.0 38.125q17.0625 24.796875 17.0625 57.328125q0 20.796875 -9.0625 37.0625q-9.0625 16.265625 -21.328125 27.468735q-12.265625 11.203125 -30.9375 24.53125q-15.46875 11.734375 -22.671875 18.671875q-7.1875 6.9375 -7.1875 14.390625l0 11.203125l-91.203064 0l0 -26.65625q0 -12.8125 8.0 -23.203125q8.0 -10.40625 25.0625 -26.406235q17.59375 -15.46875 26.921875 -27.734375q9.34375 -12.265625 9.34375 -27.1875q0 -15.46875 -9.609375 -26.40625q-9.59375 -10.9375 -25.59375 -10.9375q-34.65625 0 -34.65625 44.796875q0 9.609375 0.53125 14.40625l-98.140625 0q-0.53125 -3.734375 -1.0625 -8.53125q-0.53125 -4.796875 -0.53125 -11.734375q0 -34.140625 18.65625 -59.46875q18.671875 -25.328125 52.0 -39.1875q33.34375 -13.875 74.9375 -13.875zm-52.265625 373.32812l0 -98.671875l105.609314 0l0 98.671875l-105.609314 0z" fill-rule="nonzero"/></g></g></svg>